<?xml version="1.0" encoding="UTF-8"?><svg xmlns="http://www.w3.org/2000/svg" viewBox="0 0 23.14 19.41"><g><path d="m2.24,4.48c1.24,0,2.24-1,2.24-2.24S3.48,0,2.24,0,0,1,0,2.24s1,2.24,2.24,2.24ZM8.21.75c-.83,0-1.49.67-1.49,1.49s.67,1.49,1.49,1.49h13.43c.83,0,1.49-.67,1.49-1.49s-.67-1.49-1.49-1.49h-13.43Zm0,7.46c-.83,0-1.49.67-1.49,1.49s.67,1.49,1.49,1.49h13.43c.83,0,1.49-.67,1.49-1.49s-.67-1.49-1.49-1.49h-13.43Zm0,7.46c-.83,0-1.49.67-1.49,1.49s.67,1.49,1.49,1.49h13.43c.83,0,1.49-.67,1.49-1.49s-.67-1.49-1.49-1.49h-13.43Zm-5.97,3.73c1.24,0,2.24-1,2.24-2.24s-1-2.24-2.24-2.24-2.24,1-2.24,2.24,1,2.24,2.24,2.24Zm2.24-9.7c0-1.24-1-2.24-2.24-2.24s-2.24,1-2.24,2.24,1,2.24,2.24,2.24,2.24-1,2.24-2.24Z"/></g></svg>