<?xml version="1.0" encoding="UTF-8"?><svg id="Ebene_1" xmlns="http://www.w3.org/2000/svg" xmlns:xlink="http://www.w3.org/1999/xlink" viewBox="0 0 170.08 50"><defs><linearGradient id="Unbenannter_Verlauf" x1="7.77" y1="25" x2="47.77" y2="25" gradientUnits="userSpaceOnUse"><stop offset="0" stop-color="#ff006e"/><stop offset="1" stop-color="#b82f67"/></linearGradient></defs><path d="m55.74,36.64v-5.77h.45v2.57h3.22v-2.57h.44v5.77h-.44v-2.8h-3.22v2.8h-.45Zm7.45-2.92c0-1.59.44-2.93,2.36-2.93s2.35,1.34,2.35,2.93-.43,3.01-2.35,3.01-2.36-1.39-2.36-3.01Zm.47,0c0,1.31.27,2.63,1.89,2.63s1.88-1.32,1.88-2.63-.26-2.54-1.88-2.54c-1.62-.01-1.89,1.22-1.89,2.54Zm10.31,2.19h.02l2.15-5.03h.57v5.77h-.44v-4.9h-.03l-2.11,4.9h-.34l-2.1-4.9h-.02v4.9h-.44v-5.77h.58s2.16,5.03,2.16,5.03Zm8.95,0h.02l2.15-5.03h.57v5.77h-.44v-4.9h-.02l-2.11,4.9h-.35l-2.1-4.9h-.02v4.9h-.44v-5.77h.58l2.16,5.03Zm9.39.73v-5.77h.45v5.77h-.45Zm3.9,0v-5.77h.45l3.3,4.94h.02v-4.94h.43v5.77h-.44l-3.3-4.9h-.02v4.9s-.44,0-.44,0Zm9.51-5.36v5.36h-.44v-5.36h-1.67v-.41h3.78v.41h-1.67Zm8.35,0h-3.03v2.16h2.65v.4h-2.65v2.4h3.07v.4h-3.52v-5.77h3.48s0,.41,0,.41Zm6.89,5.36l-1.54-2.43h-1.62v2.43h-.45v-5.77h2.29c1.09,0,1.65.75,1.65,1.66,0,.85-.5,1.51-1.41,1.6l1.59,2.5h-.51,0Zm-3.16-2.84h1.74c.78,0,1.31-.47,1.31-1.26,0-.73-.46-1.26-1.25-1.26h-1.8v2.52Zm10.37,1.22h-2.58l-.59,1.62h-.47l2.11-5.81h.55l2.04,5.81h-.49l-.57-1.62Zm-1.28-3.64l-1.2,3.26h2.38l-1.17-3.26h-.01Zm7.52-.59c.63,0,1.25.08,1.91.28l-.1.38c-.86-.21-1.29-.25-1.77-.25-1.6,0-1.93,1.2-1.93,2.52,0,1.4.32,2.61,1.93,2.61.48,0,.92-.04,1.77-.25l.1.38c-.66.19-1.28.27-1.91.27-1.92,0-2.36-1.36-2.36-3.01s.44-2.93,2.36-2.93Zm7.1.49v5.36h-.44v-5.36h-1.67v-.41h3.78v.41h-1.67Zm4.86,5.36v-5.77h.45v5.77h-.45Zm6-.5l1.83-5.26h.47l-2.04,5.81h-.55l-2.11-5.81h.5l1.9,5.26Zm8.94-4.86h-3.03v2.16h2.65v.4h-2.65v2.4h3.07v.4h-3.52v-5.77h3.48s0,.41,0,.41Z"/><text transform="translate(54.39 25.15)" font-family="Prelo-ExtraBold, Prelo" font-size="17.2" font-weight="700"><tspan x="0" y="0" letter-spacing="0em">F</tspan><tspan x="9.1" y="0" letter-spacing="0em">O</tspan><tspan x="21.1" y="0" letter-spacing=".02em">RM</tspan><tspan x="46.13" y="0" xml:space="preserve" letter-spacing=".05em">   </tspan></text><circle id="a" cx="27.77" cy="25" r="20" fill="url(#Unbenannter_Verlauf)"/><path d="m18.44,19.78c1.24,0,2.24-1,2.24-2.24s-1-2.24-2.24-2.24-2.24,1-2.24,2.24,1,2.24,2.24,2.24Zm5.97-3.73c-.83,0-1.49.67-1.49,1.49s.67,1.49,1.49,1.49h13.43c.83,0,1.49-.67,1.49-1.49s-.67-1.49-1.49-1.49h-13.43Zm0,7.46c-.83,0-1.49.67-1.49,1.49s.67,1.49,1.49,1.49h13.43c.83,0,1.49-.67,1.49-1.49s-.67-1.49-1.49-1.49h-13.43Zm0,7.46c-.83,0-1.49.67-1.49,1.49s.67,1.49,1.49,1.49h13.43c.83,0,1.49-.67,1.49-1.49s-.67-1.49-1.49-1.49h-13.43Zm-5.97,3.73c1.24,0,2.24-1,2.24-2.24s-1-2.24-2.24-2.24-2.24,1-2.24,2.24,1,2.24,2.24,2.24Zm2.24-9.7c0-1.24-1-2.24-2.24-2.24s-2.24,1-2.24,2.24,1,2.24,2.24,2.24,2.24-1,2.24-2.24Z" fill="#fff"/></svg>