<?xml version="1.0" encoding="UTF-8"?><svg id="uuid-defc29a6-d752-4203-9815-999613af6199" xmlns="http://www.w3.org/2000/svg" xmlns:xlink="http://www.w3.org/1999/xlink" viewBox="0 0 170.08 50"><defs><linearGradient id="uuid-8f660ece-e0d5-4ce4-bc84-c042ff519a49" x1="5.64" y1="25" x2="45.64" y2="25" gradientUnits="userSpaceOnUse"><stop offset="0" stop-color="#ff006e"/><stop offset="1" stop-color="#b82f67"/></linearGradient></defs><g id="uuid-a80ff28a-0aea-4930-a674-feb1deeedadf"><path d="M52.4,36.67v-5.6h.54v2.57h2.89v-2.57h.54v5.6h-.54v-2.54h-2.89v2.54h-.54Z"/><path d="M64.66,35.94c-.53.57-1.22.85-2.09.85s-1.57-.28-2.09-.85c-.53-.57-.79-1.26-.79-2.07s.26-1.5.79-2.07c.52-.57,1.22-.85,2.09-.85s1.57.28,2.09.85c.53.57.79,1.26.79,2.07s-.26,1.5-.79,2.07ZM60.88,35.58c.42.47.98.71,1.69.71s1.27-.24,1.69-.71c.42-.47.63-1.04.63-1.72s-.21-1.25-.63-1.72c-.42-.47-.98-.71-1.69-.71s-1.27.24-1.69.71c-.42.47-.63,1.05-.62,1.72,0,.67.2,1.24.62,1.72Z"/><path d="M68.76,36.67v-5.6h.53l2.05,4.85,2.06-4.85h.52v5.6h-.52v-4.46l-1.84,4.46h-.43l-1.84-4.49v4.49h-.52Z"/><path d="M77.59,36.67v-5.6h.53l2.05,4.85,2.06-4.85h.52v5.6h-.52v-4.46l-1.84,4.46h-.43l-1.84-4.49v4.49h-.52Z"/><path d="M90.76,36.67v-5.6h.54v5.6h-.54Z"/><path d="M94.98,36.67v-5.6h.58l2.82,4.7v-4.7h.52v5.6h-.58l-2.82-4.71v4.71h-.52Z"/><path d="M103.67,36.67v-5.09h-1.7v-.51h3.96v.51h-1.71v5.09h-.54Z"/><path d="M108.98,36.67v-5.6h3.14v.49h-2.59v2.08h2.59v.5h-2.59v2.04h2.59v.5h-3.14Z"/><path d="M119.47,32.97c0,.44-.12.83-.34,1.15s-.53.55-.91.67l1.18,1.87h-.62l-1.12-1.78h-1.44v1.78h-.54v-5.6h1.95c.53,0,.97.18,1.32.54.35.36.52.81.52,1.37ZM116.21,31.56v2.83h1.38c.38,0,.7-.13.95-.4.25-.27.38-.61.38-1.02s-.12-.75-.38-1.02c-.25-.27-.57-.4-.95-.4h-1.38Z"/><path d="M125.97,36.67l-.33-1.01h-2.48l-.32,1.01h-.58l1.9-5.6h.49l1.9,5.6h-.58ZM123.32,35.17h2.17l-1.09-3.38-1.08,3.38Z"/><path d="M132,36.79c-.88,0-1.58-.28-2.1-.83-.52-.55-.78-1.25-.78-2.09s.26-1.53.78-2.09c.52-.55,1.22-.83,2.1-.83.72,0,1.31.17,1.77.52.46.34.75.8.88,1.36h-.59c-.12-.43-.36-.77-.71-1.02-.35-.25-.8-.38-1.35-.38-.71,0-1.28.23-1.7.69s-.62,1.04-.62,1.74.21,1.28.62,1.74c.42.46.98.69,1.7.69.55,0,1-.12,1.35-.37.35-.25.59-.59.71-1.02h.59c-.13.57-.42,1.02-.88,1.37-.46.35-1.05.52-1.77.52Z"/><path d="M138.6,36.67v-5.09h-1.7v-.51h3.96v.51h-1.71v5.09h-.54Z"/><path d="M143.92,36.67v-5.6h.54v5.6h-.54Z"/><path d="M149.42,36.67l-1.94-5.6h.58l1.62,4.77,1.62-4.77h.58l-1.94,5.6h-.52Z"/><path d="M154.89,36.67v-5.6h3.14v.49h-2.59v2.08h2.59v.5h-2.59v2.04h2.59v.5h-3.14Z"/></g><g id="uuid-8517e12b-a7aa-4b81-9b62-9cc865dbdca1"><path d="M52.22,25.18v-12.04h7.36v2.34h-4.58v3.25h4.58v2.29h-4.58v4.16h-2.79Z"/><path d="M72.32,23.68c-1.17,1.23-2.73,1.85-4.68,1.85s-3.51-.62-4.68-1.85-1.75-2.74-1.75-4.51.58-3.28,1.75-4.52c1.17-1.23,2.73-1.85,4.68-1.85s3.51.62,4.68,1.85c1.17,1.23,1.75,2.74,1.75,4.52s-.58,3.28-1.75,4.51ZM67.65,23.03c1.1,0,1.96-.37,2.59-1.11.62-.74.94-1.66.94-2.76s-.31-2.02-.94-2.76c-.62-.74-1.49-1.11-2.59-1.11s-1.98.37-2.61,1.11c-.62.74-.93,1.66-.92,2.76-.01,1.1.29,2.02.92,2.76.62.74,1.49,1.11,2.61,1.11Z"/><path d="M85.48,17.49c0,.87-.2,1.65-.6,2.33-.4.68-.95,1.2-1.65,1.54l2.12,3.82h-3.17l-1.89-3.34h-1.46v3.34h-2.79v-12.04h5.12c1.25,0,2.28.41,3.1,1.23.81.82,1.22,1.86,1.22,3.12ZM78.83,15.41v4.16h1.91c.56,0,1.02-.19,1.38-.58.36-.39.54-.89.54-1.5s-.18-1.11-.54-1.5-.82-.58-1.38-.58h-1.91Z"/><path d="M87.56,25.18v-12.04h3.23l3.2,8.55,3.2-8.55h3.17v12.04h-2.67v-7.81l-2.67,7.81h-2.06l-2.73-7.86v7.86h-2.67Z"/></g><g id="uuid-19264f6b-40d4-4b56-b054-89271bcd7202"><circle id="uuid-17e9d0b5-86a0-442d-acac-a9c61a5e1938" cx="25.64" cy="25" r="20" fill="url(#uuid-8f660ece-e0d5-4ce4-bc84-c042ff519a49)"/><path id="uuid-91489490-d9ba-49b1-a522-1e5720a38d3c" d="M16.31,19.78c1.24,0,2.24-1,2.24-2.24s-1-2.24-2.24-2.24-2.24,1-2.24,2.24,1,2.24,2.24,2.24ZM22.28,16.04c-.83,0-1.49.67-1.49,1.49s.67,1.49,1.49,1.49h13.43c.83,0,1.49-.67,1.49-1.49s-.67-1.49-1.49-1.49h-13.43ZM22.28,23.51c-.83,0-1.49.67-1.49,1.49s.67,1.49,1.49,1.49h13.43c.83,0,1.49-.67,1.49-1.49s-.67-1.49-1.49-1.49h-13.43ZM22.28,30.97c-.83,0-1.49.67-1.49,1.49s.67,1.49,1.49,1.49h13.43c.83,0,1.49-.67,1.49-1.49s-.67-1.49-1.49-1.49h-13.43ZM16.31,34.7c1.24,0,2.24-1,2.24-2.24s-1-2.24-2.24-2.24-2.24,1-2.24,2.24,1,2.24,2.24,2.24ZM18.55,25c0-1.24-1-2.24-2.24-2.24s-2.24,1-2.24,2.24,1,2.24,2.24,2.24,2.24-1,2.24-2.24Z" fill="#fff"/></g></svg>
