<?xml version="1.0" encoding="UTF-8"?><svg xmlns="http://www.w3.org/2000/svg" xmlns:xlink="http://www.w3.org/1999/xlink" viewBox="0 0 40 40"><defs><linearGradient id="Unbenannter_Verlauf" x1="0" y1="20" x2="40" y2="20" gradientUnits="userSpaceOnUse"><stop offset="0" stop-color="#ff006e"/><stop offset="1" stop-color="#b82f67"/></linearGradient></defs><g id="form"><circle id="a" cx="20" cy="20" r="20" fill="url(#Unbenannter_Verlauf)"/><path d="m10.67,14.78c1.24,0,2.24-1,2.24-2.24s-1-2.24-2.24-2.24-2.24,1-2.24,2.24,1,2.24,2.24,2.24Zm5.97-3.73c-.83,0-1.49.67-1.49,1.49s.67,1.49,1.49,1.49h13.43c.83,0,1.49-.67,1.49-1.49s-.67-1.49-1.49-1.49h-13.43Zm0,7.46c-.83,0-1.49.67-1.49,1.49s.67,1.49,1.49,1.49h13.43c.83,0,1.49-.67,1.49-1.49s-.67-1.49-1.49-1.49h-13.43Zm0,7.46c-.83,0-1.49.67-1.49,1.49s.67,1.49,1.49,1.49h13.43c.83,0,1.49-.67,1.49-1.49s-.67-1.49-1.49-1.49h-13.43Zm-5.97,3.73c1.24,0,2.24-1,2.24-2.24s-1-2.24-2.24-2.24-2.24,1-2.24,2.24,1,2.24,2.24,2.24Zm2.24-9.7c0-1.24-1-2.24-2.24-2.24s-2.24,1-2.24,2.24,1,2.24,2.24,2.24,2.24-1,2.24-2.24Z" fill="#fff"/></g></svg>